<svg version="1.1" id="Layer_1" xmlns="http://www.w3.org/2000/svg" xmlns:xlink="http://www.w3.org/1999/xlink" x="0px" y="0px"
	 width="100%" viewBox="0 0 1880 2027" enable-background="new 0 0 1880 2027" xml:space="preserve">
<path fill="#375CA7" opacity="1.000000" stroke="none" 
	d="
M1264.000000,2028.000000 
	C842.666687,2028.000000 421.833344,2028.000000 1.000000,2028.000000 
	C1.000000,1352.333374 1.000000,676.666687 1.000000,1.000000 
	C627.666687,1.000000 1254.333374,1.000000 1881.000000,1.000000 
	C1881.000000,676.666687 1881.000000,1352.333374 1881.000000,2028.000000 
	C1675.500000,2028.000000 1470.000000,2028.000000 1264.000000,2028.000000 
M308.155457,1815.477295 
	C308.452271,1815.559937 308.749084,1815.642578 309.973328,1815.816284 
	C427.935547,1815.816284 545.897766,1815.816284 664.636414,1815.816284 
	C664.636414,1507.108887 664.636414,1198.817505 664.636414,890.526062 
	C666.274353,891.268494 666.915222,892.180115 667.493469,893.129761 
	C681.680298,916.429443 695.858398,939.734314 710.041931,963.036011 
	C784.029663,1084.588623 858.017090,1206.141479 932.007507,1327.692383 
	C969.992859,1390.094482 1007.990173,1452.489258 1045.970947,1514.894043 
	C1082.740479,1575.308716 1119.489502,1635.735840 1156.259644,1696.150146 
	C1179.712158,1734.683350 1203.227295,1773.178589 1226.575562,1811.774780 
	C1228.461426,1814.892334 1230.463501,1815.925415 1234.065918,1815.921997 
	C1345.231079,1815.818604 1456.396240,1815.837402 1567.561523,1815.837402 
	C1569.326050,1815.837402 1571.090576,1815.837524 1572.850342,1815.837524 
	C1572.850342,1311.861206 1572.850342,808.617188 1572.850342,305.336945 
	C1462.318848,305.336945 1352.102173,305.336945 1241.180786,305.336945 
	C1241.180786,595.298401 1241.180786,884.923523 1241.180786,1175.881836 
	C1239.294556,1173.182495 1238.230713,1171.729126 1237.237671,1170.228638 
	C1222.076172,1147.319824 1206.931396,1124.399902 1191.768066,1101.492188 
	C1125.453613,1001.309570 1059.139771,901.126587 992.816223,800.950012 
	C884.357788,637.131958 775.882996,473.324738 667.494629,309.460266 
	C665.351685,306.220520 663.159912,304.897156 659.160095,304.901398 
	C543.994995,305.023529 428.829803,305.000000 313.664612,305.000000 
	C311.892456,305.000000 310.120270,305.000000 308.000000,305.000000 
	C308.000000,307.713440 308.000000,309.851410 308.000000,311.989380 
	C308.000000,810.982971 307.999786,1309.976562 308.006561,1808.970215 
	C308.006592,1810.966919 308.106201,1812.963501 308.155457,1815.477295 
z"/>
<path fill="#FFFFFF" opacity="1.000000" stroke="none" 
	d="
M308.159271,1814.960205 
	C308.106201,1812.963501 308.006592,1810.966919 308.006561,1808.970215 
	C307.999786,1309.976562 308.000000,810.982971 308.000000,311.989380 
	C308.000000,309.851410 308.000000,307.713440 308.000000,305.000000 
	C310.120270,305.000000 311.892456,305.000000 313.664612,305.000000 
	C428.829803,305.000000 543.994995,305.023529 659.160095,304.901398 
	C663.159912,304.897156 665.351685,306.220520 667.494629,309.460266 
	C775.882996,473.324738 884.357788,637.131958 992.816223,800.950012 
	C1059.139771,901.126587 1125.453613,1001.309570 1191.768066,1101.492188 
	C1206.931396,1124.399902 1222.076172,1147.319824 1237.237671,1170.228638 
	C1238.230713,1171.729126 1239.294556,1173.182495 1241.180786,1175.881836 
	C1241.180786,884.923523 1241.180786,595.298401 1241.180786,305.336945 
	C1352.102173,305.336945 1462.318848,305.336945 1572.850342,305.336945 
	C1572.850342,808.617188 1572.850342,1311.861206 1572.850342,1815.837524 
	C1571.090576,1815.837524 1569.326050,1815.837402 1567.561523,1815.837402 
	C1456.396240,1815.837402 1345.231079,1815.818604 1234.065918,1815.921997 
	C1230.463501,1815.925415 1228.461426,1814.892334 1226.575562,1811.774780 
	C1203.227295,1773.178589 1179.712158,1734.683350 1156.259644,1696.150146 
	C1119.489502,1635.735840 1082.740479,1575.308716 1045.970947,1514.894043 
	C1007.990173,1452.489258 969.992859,1390.094482 932.007507,1327.692383 
	C858.017090,1206.141479 784.029663,1084.588623 710.041931,963.036011 
	C695.858398,939.734314 681.680298,916.429443 667.493469,893.129761 
	C666.915222,892.180115 666.274353,891.268494 664.636414,890.526062 
	C664.636414,1198.817505 664.636414,1507.108887 664.636414,1815.816284 
	C545.897766,1815.816284 427.935547,1815.816284 309.401917,1815.602539 
	C308.632050,1815.206299 308.408295,1815.063477 308.159271,1814.960205 
z"/>
<path fill="#D0D3EC" opacity="1.000000" stroke="none" 
	d="
M308.157349,1815.218750 
	C308.408295,1815.063477 308.632050,1815.206299 308.938202,1815.556885 
	C308.749084,1815.642578 308.452271,1815.559937 308.157349,1815.218750 
z"/>
</svg>