<?xml version="1.0" encoding="utf-8"?>
<!-- Generator: Adobe Illustrator 24.3.0, SVG Export Plug-In . SVG Version: 6.00 Build 0)  -->
<svg version="1.1" id="Calque_1" xmlns="http://www.w3.org/2000/svg" xmlns:xlink="http://www.w3.org/1999/xlink" x="0px" y="0px"
	 viewBox="0 0 841.89 595.28" style="enable-background:new 0 0 841.89 595.28;" xml:space="preserve">
<style type="text/css">
	.st0{fill:#395CA7;}
	.st1{fill:#FFFFFF;}
</style>
<path d="M429.88,353.94c-8.27,0-16.13,0-23.99,0c-6.69,0-6.69,0-6.69-6.58c0-14.16-0.02-28.32,0.01-42.48
	c0.01-4.32-0.55-8.44-3.11-12.11c-3.35-4.8-9.68-6.94-16.38-5.43c-5.27,1.19-9.21,5.63-9.95,11.45c-0.3,2.36-0.36,4.76-0.36,7.14
	c-0.03,14.96-0.01,29.91-0.01,44.87c0,0.88,0,1.75,0,2.88c-10.25,0-20.33,0-30.54,0v-88.61h30.44c0,2.87,0,5.74,0,9.55
	c8.76-8.4,18.16-13.48,29.9-12.17c11.3,1.26,21.06,5.33,26.84,15.5c4.19-3.5,8.08-7.28,12.47-10.33
	c14.65-10.16,36.26-4.69,45.46,6.35c4.26,5.12,6.25,11.18,6.32,17.65c0.22,20.44,0.12,40.88,0.13,61.33c0,0.17-0.09,0.34-0.21,0.74
	h-30.32c-0.05-0.05-0.08-0.08-0.13-0.13c-0.03-16.27,0.06-32.54-0.09-48.81c-0.03-2.95-0.36-6.09-1.4-8.81
	c-2.69-7.07-9.54-10.24-17.63-8.68c-6.36,1.23-10.7,7.01-10.72,14.54c-0.05,16.11-0.02,32.21-0.03,48.32
	C429.88,351.27,429.88,352.41,429.88,353.94z"/>
<path d="M528.47,204.94h-30.09v148.8h30.09v-41.82c-0.18-1.77-0.18-3.5,0-5.14V204.94z"/>
<path d="M686.26,264.91v88.64h29.89v-88.64H686.26z"/>
<rect x="300.41" y="265" width="30.43" height="88.68"/>
<path d="M318.74,207.07c7.32,0.95,13.5,6.67,15.1,13.87c2.57,11.61-6.21,22.18-17.38,22.33c-10.09,0.14-18.46-7.83-18.69-17.78
	C297.52,214.55,307.28,205.57,318.74,207.07z"/>
<path d="M677.88,382.45c-3.9,7.69-7.78,15.39-11.75,23.04c-0.45,0.86-1.49,2.07-2.14,2c-0.88-0.09-1.95-1.1-2.41-1.99
	c-3.96-7.64-7.8-15.33-12.2-22.95c0,9.55,0,19.09,0,28.76c-1.45,0-2.52,0-3.97,0c0-1.1,0-2.1,0-3.09c0-10.18-0.03-20.37,0.04-30.55
	c0.01-0.92,0.67-2.63,0.99-2.62c1.67,0.05,3.67-1.14,4.89,1.33c4.04,8.19,8.25,16.3,12.57,24.78c2.07-4.07,4.01-7.85,5.93-11.65
	c1.89-3.73,3.75-7.48,5.65-11.21c1.96-3.84,1.98-3.84,6.63-3.13c0,11.91,0,23.85,0,36.03c-1.08,0-2.21,0-3.59,0V382.6
	C678.17,382.52,678.22,382.53,677.88,382.45z"/>
<path d="M635.99,378.11c-0.68,1.46-1.22,2.6-1.82,3.89c-4.17-2.22-8.37-3.67-13.06-2.64c-2.33,0.52-4.32,1.46-4.7,4.04
	c-0.39,2.66,1.18,4.41,3.44,5.43c2.09,0.94,4.33,1.57,6.48,2.38c2.03,0.76,4.14,1.41,6.02,2.45c3.03,1.68,4.72,5.18,4.46,8.63
	c-0.25,3.31-1.98,5.79-4.95,7.42c-6.65,3.64-16.71,1.9-22.11-3.86c0.54-1.06,1.1-2.17,1.54-3.04c2.87,1.38,5.49,3.26,8.37,3.84
	c2.96,0.6,6.22,0.22,9.26-0.3c2.02-0.35,3.53-2.27,3.18-4.39c-0.27-1.66-1.25-3.68-2.56-4.6c-1.97-1.37-4.51-1.92-6.81-2.81
	c-2.39-0.93-4.9-1.64-7.11-2.92c-2.16-1.25-3.57-3.61-3.82-6.09c-0.43-4.25,1.31-7.38,4.85-9.05
	C623.25,373.4,629.58,374.65,635.99,378.11z"/>
<path d="M691.32,402.29c3.55,2.91,7.16,5.03,11.53,5.01c2.08-0.01,4.33-0.27,6.22-1.07c4.1-1.75,4.49-6.17,0.78-8.66
	c-1.87-1.25-4.17-1.86-6.3-2.72c-2.48-1-5.07-1.77-7.45-2.95c-2.35-1.17-4.04-3.51-4.32-6.12c-0.47-4.32,1.15-7.52,4.64-9.18
	c6.66-3.18,13.04-2.05,19.41,1.54c-0.6,1.37-1.11,2.52-1.55,3.51c-2.89-0.85-5.59-1.98-8.4-2.37c-2.11-0.29-4.47,0-6.5,0.68
	c-3.69,1.24-4.3,5.62-1.11,7.85c1.84,1.29,4.11,2.01,6.24,2.86c2.29,0.92,4.7,1.57,6.93,2.6c3.39,1.56,5.21,4.22,5.24,8.09
	c0.04,3.93-1.73,6.68-5.12,8.49c-6.04,3.23-15.7,1.89-20.92-2.89C688.59,405.07,691.12,404.07,691.32,402.29z"/>
<rect x="125.22" y="183.65" class="st0" width="167.16" height="191.14"/>
<polyline class="st1" points="146.4,346.2 146.4,319.13 146.4,204.83 181.54,204.83 238.49,290.85 238.49,204.83 271.2,204.83 
	271.2,353.86 237.27,353.86 181.54,262.29 181.54,353.86 146.4,353.86 "/>
<path d="M557.98,264.98c-24,0-43.48,19.84-43.48,44.34c0,24.48,19.48,44.34,43.48,44.34c24.02,0,43.5-19.87,43.5-44.34
	C601.48,284.83,582,264.98,557.98,264.98z M548.71,329.69c-11.26,0-20.37-9.11-20.37-20.37s9.11-20.39,20.37-20.39
	c11.26,0,20.37,9.13,20.37,20.39S559.97,329.69,548.71,329.69z"/>
<path d="M609.45,309.16c0,24.48,19.48,44.35,43.51,44.35c24,0,43.48-19.87,43.48-44.35c0-24.5-19.48-44.35-43.48-44.35
	C628.93,264.81,609.45,284.65,609.45,309.16z M641.85,309.16c0-11.26,9.11-20.39,20.37-20.39c11.26,0,20.37,9.13,20.37,20.39
	s-9.11,20.37-20.37,20.37C650.97,329.53,641.85,320.42,641.85,309.16z"/>
</svg>
