<?xml version="1.0" standalone="no"?>
<!DOCTYPE svg PUBLIC "-//W3C//DTD SVG 20010904//EN"
 "http://www.w3.org/TR/2001/REC-SVG-20010904/DTD/svg10.dtd">
<svg version="1.0" xmlns="http://www.w3.org/2000/svg"
 width="640.000000pt" height="640.000000pt" viewBox="0 0 640.000000 640.000000"
 preserveAspectRatio="xMidYMid meet">

<g transform="translate(0.000000,640.000000) scale(0.100000,-0.100000)"
fill="#000000" stroke="none">
<path d="M0 3200 l0 -3200 3200 0 3200 0 0 3200 0 3200 -3200 0 -3200 0 0
-3200z m2500 100 l0 -530 -460 0 -460 0 0 530 0 530 460 0 460 0 0 -530z
m1290 219 c0 -104 2 -189 4 -189 2 0 27 11 54 25 113 57 252 7 321 -114 7 -14
16 -53 19 -87 4 -51 0 -70 -20 -115 -46 -97 -105 -139 -206 -146 -58 -4 -73
-1 -115 21 -26 14 -50 26 -53 26 -2 0 -4 -11 -4 -25 0 -25 -1 -25 -85 -25
l-85 0 0 413 0 412 85 -3 85 -3 0 -190z m-1109 164 c38 -23 54 -71 39 -118
-15 -44 -44 -65 -93 -65 -49 0 -84 24 -96 66 -27 96 65 167 150 117z m449
-299 c25 -8 57 -27 73 -42 l27 -26 28 22 c50 41 112 65 153 59 64 -8 123 -43
147 -86 20 -36 22 -52 22 -230 l0 -191 -85 0 -85 0 0 140 c0 97 -4 151 -14
174 -17 40 -64 63 -94 47 -50 -27 -52 -33 -52 -202 l0 -159 -84 0 -84 0 -4
159 c-3 172 -9 192 -64 205 -28 7 -79 -16 -88 -39 -3 -9 -6 -86 -6 -171 l0
-154 -87 0 -88 0 3 245 3 245 84 0 c78 0 85 -2 85 -19 0 -19 4 -18 56 10 64
33 90 35 154 13z m-420 -249 l0 -245 -85 0 -85 0 0 245 0 245 85 0 85 0 0
-245z m1856 225 c25 -12 54 -30 64 -40 20 -20 20 -20 20 20 l0 40 85 0 85 0 0
-245 0 -245 -85 0 -85 0 0 42 c0 35 -2 39 -12 26 -7 -8 -31 -26 -53 -39 -58
-35 -172 -34 -233 0 -124 72 -159 249 -73 368 61 84 190 117 287 73z m-194
-597 c4 -2 5 -10 2 -18 -4 -11 -12 -12 -32 -4 -14 6 -37 7 -50 4 -36 -9 -23
-37 26 -55 46 -17 62 -33 62 -64 0 -52 -80 -75 -130 -36 -30 23 -22 34 14 20
39 -15 76 -12 82 5 8 19 -13 45 -35 45 -9 0 -29 11 -45 23 -24 19 -28 28 -22
51 4 15 17 31 29 36 20 8 81 4 99 -7z m123 -59 c34 -72 38 -72 76 18 12 26 29
48 40 51 18 5 19 -1 19 -99 0 -63 -4 -104 -10 -104 -6 0 -10 34 -10 83 l-1 82
-35 -67 c-19 -38 -40 -68 -47 -68 -7 0 -27 28 -44 63 l-33 62 0 -77 c0 -63 -3
-78 -15 -78 -12 0 -15 18 -15 99 0 98 6 116 35 104 6 -2 24 -33 40 -69z m308
59 c4 -2 7 -11 7 -18 0 -12 -6 -12 -27 -4 -34 13 -73 4 -73 -17 0 -8 20 -24
48 -36 52 -23 62 -33 62 -65 0 -48 -86 -71 -131 -34 -31 25 -21 34 20 20 38
-13 81 -4 81 17 0 9 -21 24 -50 36 -51 21 -70 49 -56 83 11 29 81 40 119 18z"/>
<path d="M1700 3300 l0 -410 95 0 95 0 0 251 0 252 23 -34 c24 -36 77 -124 90
-149 4 -8 34 -58 67 -110 33 -52 71 -117 86 -145 15 -27 32 -53 38 -57 6 -4
50 -8 99 -8 l87 0 0 410 0 410 -90 0 -90 0 0 -236 c0 -209 -2 -235 -15 -224
-8 7 -15 16 -15 21 0 7 -90 147 -153 236 -12 18 -47 71 -77 118 l-55 85 -92 0
-93 0 0 -410z"/>
<path d="M3838 3223 c-73 -46 -61 -154 22 -187 35 -14 45 -14 73 -2 61 25 86
74 67 131 -23 68 -100 96 -162 58z"/>
<path d="M4453 3218 c-70 -50 -52 -148 34 -184 28 -12 38 -12 66 -1 62 27 88
82 63 141 -28 67 -102 87 -163 44z"/>
</g>
</svg>
